<svg xmlns="http://www.w3.org/2000/svg" width="185.225" height="45.393" viewBox="0 0 185.225 45.393">
  <g id="razr_logo" data-name="razr logo" transform="translate(-976.451 -450.155)">
    <g id="Group_78" data-name="Group 78" transform="translate(976.451 450.155)">
      <path id="Path_140" data-name="Path 140" d="M1171.265,508.753a5.674,5.674,0,1,0-5.676,5.673,5.676,5.676,0,0,0,5.676-5.673" transform="translate(-1100.909 -486.056)" fill="#e50019"/>
      <path id="Path_141" data-name="Path 141" d="M987.8,508.753a5.674,5.674,0,1,0-5.675,5.673,5.676,5.676,0,0,0,5.675-5.673" transform="translate(-976.451 -486.056)" fill="#e50019"/>
      <path id="Path_142" data-name="Path 142" d="M1079.531,472.852a5.644,5.644,0,0,0-1.663-4.011c-3.179-3.18-3.179-5.818,0-9a5.672,5.672,0,1,0-8.023,0c3.181,3.181,3.181,5.818,0,9a5.675,5.675,0,0,0,0,8.023c3.181,3.182,3.181,5.816,0,9a5.675,5.675,0,1,0,8.023,0c-3.179-3.182-3.179-5.816,0-9a5.645,5.645,0,0,0,1.663-4.011" transform="translate(-1038.68 -450.155)" fill="#e50019"/>
      <path id="Path_143" data-name="Path 143" d="M1032,486.308a5.674,5.674,0,1,0-8.027,0c3.183,3.18,3.183,5.815,0,9a5.674,5.674,0,1,0,8.027,0c-3.182-3.183-3.182-5.817,0-9" transform="translate(-1007.564 -468.11)" fill="#e50019"/>
      <path id="Path_144" data-name="Path 144" d="M1123.734,486.308a5.673,5.673,0,1,0-8.025,0c3.183,3.18,3.183,5.815,0,9a5.676,5.676,0,1,0,8.025,0c-3.181-3.183-3.181-5.817,0-9" transform="translate(-1069.792 -468.11)" fill="#e50019"/>
    </g>
    <g id="Group_79" data-name="Group 79" transform="translate(1056.276 463.256)">
      <path id="Path_145" data-name="Path 145" d="M1224.638,492.225a.573.573,0,0,1,.131-.392.484.484,0,0,1,.384-.145h7.541a5.663,5.663,0,0,1,2.253.45,5.87,5.87,0,0,1,1.833,1.22,5.685,5.685,0,0,1,1.23,1.8,5.461,5.461,0,0,1,.45,2.2,5.248,5.248,0,0,1-.215,1.512,5.608,5.608,0,0,1-.6,1.341,5.674,5.674,0,0,1-.915,1.135,6.009,6.009,0,0,1-1.164.868l3,5.65c.055.108.125.237.211.384a.823.823,0,0,1,.126.386.342.342,0,0,1-.123.286.5.5,0,0,1-.332.1h-4a.589.589,0,0,1-.356-.117.537.537,0,0,1-.205-.315l-2.836-5.335h-1.891v5.264q0,.5-.536.5h-3.467a.557.557,0,0,1-.374-.123.484.484,0,0,1-.141-.38Zm9.141,5.183a2.023,2.023,0,0,0-.129-.7,2.254,2.254,0,0,0-.362-.641,2.119,2.119,0,0,0-.561-.49,1.88,1.88,0,0,0-.723-.255c-.217-.016-.422-.031-.611-.042s-.4-.016-.625-.016h-1.612v4.283h2.148c.139,0,.265,0,.374-.012s.229-.02.362-.034a1.884,1.884,0,0,0,.734-.239,1.977,1.977,0,0,0,.551-.478,2.123,2.123,0,0,0,.337-.643,2.3,2.3,0,0,0,.117-.729" transform="translate(-1224.638 -491.432)" fill="#fff"/>
      <path id="Path_146" data-name="Path 146" d="M1284.729,519.485a.816.816,0,0,1-.056.3.733.733,0,0,1-.43.36,1.318,1.318,0,0,1-.244.028h-1.838a.862.862,0,0,1-.318-.05.486.486,0,0,1-.2-.147.888.888,0,0,1-.127-.229c-.032-.089-.068-.187-.1-.293l-.271-.7c-.169.167-.353.346-.551.537a5.23,5.23,0,0,1-.661.528,3.892,3.892,0,0,1-.778.406,2.454,2.454,0,0,1-.9.163,6.1,6.1,0,0,1-1.628-.215,6.026,6.026,0,0,1-2.685-1.563,6.136,6.136,0,0,1-.947-1.238,6.057,6.057,0,0,1-.613-1.47,6.279,6.279,0,0,1-.215-1.65,6.117,6.117,0,0,1,1.775-4.355,5.941,5.941,0,0,1,1.933-1.3,6.011,6.011,0,0,1,2.38-.472,3.182,3.182,0,0,1,1.068.173,3.778,3.778,0,0,1,.882.452,4.332,4.332,0,0,1,.717.637,6.6,6.6,0,0,1,.575.717l.363-1.129c.063-.155.115-.281.155-.378a.642.642,0,0,1,.13-.215.357.357,0,0,1,.173-.094,1.5,1.5,0,0,1,.289-.022H1284a1.317,1.317,0,0,1,.244.028.445.445,0,0,1,.243.131.593.593,0,0,1,.187.231.75.75,0,0,1,.056.3Zm-9.2-5.229a3.378,3.378,0,0,0,.193,1.154,2.736,2.736,0,0,0,.544.93,2.584,2.584,0,0,0,1.962.849,2.965,2.965,0,0,0,1.161-.227,3.041,3.041,0,0,0,.935-.621,2.82,2.82,0,0,0,.621-.93,3.029,3.029,0,0,0-.621-3.246,2.946,2.946,0,0,0-.935-.649,2.867,2.867,0,0,0-1.161-.239,2.571,2.571,0,0,0-1.107.239,2.6,2.6,0,0,0-.855.649,2.926,2.926,0,0,0-.544.955,3.35,3.35,0,0,0-.193,1.138" transform="translate(-1256.88 -502.584)" fill="#fff"/>
      <path id="Path_147" data-name="Path 147" d="M1317.269,509.294a.71.71,0,0,1,.2-.526.743.743,0,0,1,.547-.2h7.862a.826.826,0,0,1,.529.181.662.662,0,0,1,.227.546v1.626a1.37,1.37,0,0,1-.014.2.469.469,0,0,1-.1.223l-5.146,6.108h4.613a.764.764,0,0,1,.536.181.735.735,0,0,1,.2.575v1.465a.8.8,0,0,1-.052.286.83.83,0,0,1-.149.261.761.761,0,0,1-.233.187.636.636,0,0,1-.3.07h-8.237a.6.6,0,0,1-.285-.07.9.9,0,0,1-.243-.183.815.815,0,0,1-.167-.256.766.766,0,0,1-.062-.3v-1.288a1.456,1.456,0,0,1,.024-.253.534.534,0,0,1,.134-.249q.627-.693,1.312-1.5t1.387-1.638q.7-.832,1.391-1.642t1.319-1.513h-4.548a.684.684,0,0,1-.748-.776Z" transform="translate(-1287.292 -502.881)" fill="#fff"/>
      <path id="Path_148" data-name="Path 148" d="M1353.06,509.007a.7.7,0,0,1,.07-.3.712.712,0,0,1,.171-.229.908.908,0,0,1,.506-.159h1.411a.513.513,0,0,1,.28.067.555.555,0,0,1,.173.169,1.116,1.116,0,0,1,.121.231,1.7,1.7,0,0,0,.127.261c.012.026.036.087.075.183s.078.2.122.315.084.227.124.33.068.171.08.2c.187-.205.364-.42.537-.649a6.042,6.042,0,0,1,.547-.629,2.658,2.658,0,0,1,.645-.477,1.767,1.767,0,0,1,.838-.187,4.881,4.881,0,0,1,.9.074,4.241,4.241,0,0,1,.752.219,4.438,4.438,0,0,1,.706.37c.233.149.486.321.759.523q.645.346.243,1.027l-.85,1.449a.755.755,0,0,1-.456.344.865.865,0,0,1-.589-.084,3.02,3.02,0,0,0-.818-.583,2.26,2.26,0,0,0-.947-.19,1.815,1.815,0,0,0-.638.1,1.745,1.745,0,0,0-.5.289,2.641,2.641,0,0,0-.42.446c-.13.177-.261.369-.392.581v6.761a.752.752,0,0,1-.173.536.765.765,0,0,1-.575.183h-2.1a.639.639,0,0,1-.729-.719Z" transform="translate(-1311.755 -502.584)" fill="#fff"/>
      <path id="Path_149" data-name="Path 149" d="M1400.638,492.406a.748.748,0,0,1,.294.3.491.491,0,0,1-.036.446l-1.972,2.8a.477.477,0,0,1-.275.229.534.534,0,0,1-.356-.1,4.456,4.456,0,0,0-1.26-.665,4.552,4.552,0,0,0-1.459-.235,4.253,4.253,0,0,0-3.154,1.354,4.667,4.667,0,0,0-.91,1.471,4.933,4.933,0,0,0-.326,1.8,4.878,4.878,0,0,0,.326,1.791,4.564,4.564,0,0,0,.91,1.459,4.257,4.257,0,0,0,3.154,1.349,4.54,4.54,0,0,0,2.742-.91.527.527,0,0,1,.35-.1.467.467,0,0,1,.28.209l2,2.872a.458.458,0,0,1,.036.432.764.764,0,0,1-.291.292,9.2,9.2,0,0,1-2.366,1.137,8.707,8.707,0,0,1-2.665.4,8.814,8.814,0,0,1-2.377-.318,8.713,8.713,0,0,1-2.131-.9,9.044,9.044,0,0,1-3.2-3.194,8.584,8.584,0,0,1-.9-2.124,8.96,8.96,0,0,1,.9-6.888,8.908,8.908,0,0,1,1.395-1.813,8.729,8.729,0,0,1,1.8-1.4,9.218,9.218,0,0,1,2.131-.9,9.037,9.037,0,0,1,5.02.07,9.091,9.091,0,0,1,2.339,1.126" transform="translate(-1334.6 -490.889)" fill="#fff"/>
      <path id="Path_150" data-name="Path 150" d="M1436.482,514.255a6.094,6.094,0,0,1,1.789-4.355,5.867,5.867,0,0,1,1.238-.949,6.21,6.21,0,0,1,1.469-.607,6.276,6.276,0,0,1,1.648-.215,6.091,6.091,0,0,1,4.329,1.771,6.175,6.175,0,0,1,1.308,1.942,6.285,6.285,0,0,1,.259,4.064,6.247,6.247,0,0,1-.615,1.47,6.085,6.085,0,0,1-3.652,2.8,6.107,6.107,0,0,1-1.63.215,6.264,6.264,0,0,1-1.648-.215,6.088,6.088,0,0,1-2.708-1.563,6.046,6.046,0,0,1-.953-1.238,6.211,6.211,0,0,1-.615-1.47,6.122,6.122,0,0,1-.221-1.65m3.411,0a3.383,3.383,0,0,0,.191,1.154,2.8,2.8,0,0,0,.541.93,2.58,2.58,0,0,0,.85.621,2.7,2.7,0,0,0,1.126.227,2.6,2.6,0,0,0,1.1-.227,2.539,2.539,0,0,0,.83-.621,2.758,2.758,0,0,0,.523-.93,3.686,3.686,0,0,0,0-2.292,2.954,2.954,0,0,0-.523-.955,2.482,2.482,0,0,0-.83-.649,2.514,2.514,0,0,0-1.1-.239,2.614,2.614,0,0,0-1.126.239,2.519,2.519,0,0,0-.85.649,3,3,0,0,0-.541.955,3.354,3.354,0,0,0-.191,1.138" transform="translate(-1368.346 -502.584)" fill="#fff"/>
      <path id="Path_151" data-name="Path 151" d="M1480.388,509.007a.7.7,0,0,1,.07-.3.645.645,0,0,1,.173-.229.9.9,0,0,1,.5-.159h1.408a.506.506,0,0,1,.279.067.537.537,0,0,1,.173.169,1.136,1.136,0,0,1,.122.231,1.792,1.792,0,0,0,.127.261c.01.026.036.087.074.183s.077.2.123.315.082.227.125.33.066.171.078.2a8.089,8.089,0,0,0,.536-.649,6.128,6.128,0,0,1,.546-.629,2.7,2.7,0,0,1,.646-.477,1.773,1.773,0,0,1,.839-.187,4.878,4.878,0,0,1,.9.074,4.28,4.28,0,0,1,.752.219,4.576,4.576,0,0,1,.706.37c.231.149.486.321.76.523.43.231.509.573.243,1.027l-.85,1.449a.755.755,0,0,1-.458.344.86.86,0,0,1-.587-.084,3.041,3.041,0,0,0-.818-.583,2.261,2.261,0,0,0-.948-.19,1.833,1.833,0,0,0-.639.1,1.769,1.769,0,0,0-.5.289,2.686,2.686,0,0,0-.418.446c-.133.177-.263.369-.394.581v6.761a.634.634,0,0,1-.745.719h-2.1a.64.64,0,0,1-.729-.719Z" transform="translate(-1398.13 -502.584)" fill="#fff"/>
      <path id="Path_152" data-name="Path 152" d="M1514.051,508.429a.56.56,0,0,1,.251-.131,1.251,1.251,0,0,1,.251-.028h1.411a.668.668,0,0,1,.293.056.507.507,0,0,1,.191.153,1.056,1.056,0,0,1,.128.225c.032.085.067.177.1.276l.394,1.129c.172-.225.349-.452.526-.687a3.4,3.4,0,0,1,.631-.633,3.181,3.181,0,0,1,.868-.473,3.558,3.558,0,0,1,1.232-.187,5.8,5.8,0,0,1,2.358.472,5.581,5.581,0,0,1,1.859,1.3,5.931,5.931,0,0,1,1.218,1.942,6.829,6.829,0,0,1,0,4.824,5.937,5.937,0,0,1-1.218,1.948,5.637,5.637,0,0,1-1.859,1.3,5.737,5.737,0,0,1-2.358.479,3.358,3.358,0,0,1-1.045-.144,3.091,3.091,0,0,1-.78-.378,3.6,3.6,0,0,1-.6-.515q-.263-.28-.513-.561v4.353a.7.7,0,0,1-.169.474.651.651,0,0,1-.525.2h-2.138a.7.7,0,0,1-.243-.046.96.96,0,0,1-.241-.131.691.691,0,0,1-.187-.211.558.558,0,0,1-.074-.283V508.959a.618.618,0,0,1,.068-.307,1.131,1.131,0,0,1,.174-.223m8.723,5.826a3.265,3.265,0,0,0-.2-1.134,2.931,2.931,0,0,0-.552-.94,2.559,2.559,0,0,0-1.941-.868,2.911,2.911,0,0,0-1.116.219,3.066,3.066,0,0,0-.924.6,3.133,3.133,0,0,0-.645.893,2.836,2.836,0,0,0-.276,1.093v.139a2.957,2.957,0,0,0,.87,2.1,2.988,2.988,0,0,0,.943.63,2.87,2.87,0,0,0,1.148.233,2.536,2.536,0,0,0,1.093-.233,2.582,2.582,0,0,0,.848-.63,2.821,2.821,0,0,0,.552-.939,3.357,3.357,0,0,0,.2-1.158" transform="translate(-1420.801 -502.584)" fill="#fff"/>
    </g>
  </g>
</svg>
